<?xml version="1.0" standalone="no"?>
<!DOCTYPE svg PUBLIC "-//W3C//DTD SVG 20010904//EN"
 "http://www.w3.org/TR/2001/REC-SVG-20010904/DTD/svg10.dtd">
<svg version="1.0" xmlns="http://www.w3.org/2000/svg"
 width="248.000000pt" height="236.000000pt" viewBox="0 0 248.000000 236.000000"
 preserveAspectRatio="xMidYMid meet">

<g transform="translate(0.000000,236.000000) scale(0.100000,-0.100000)"
fill="#000000" stroke="none">
<path d="M1368 2043 l-138 -76 0 -159 c0 -156 0 -158 20 -148 18 10 20 21 20
140 l0 129 125 68 c112 61 125 71 125 96 0 15 -3 27 -7 27 -5 -1 -70 -35 -145
-77z"/>
<path d="M1033 1842 l-142 -77 -1 -157 c0 -87 3 -158 6 -158 4 0 71 35 150 78
l144 77 0 158 c0 86 -3 157 -7 157 -5 -1 -72 -36 -150 -78z"/>
<path d="M1698 1841 l-138 -76 0 -159 c0 -140 2 -157 16 -152 9 3 18 6 20 6 2
0 4 60 4 133 l0 134 125 68 c114 63 125 71 125 97 0 15 -3 28 -7 27 -5 -1 -70
-36 -145 -78z"/>
<path d="M708 1645 l-147 -80 -1 -163 0 -162 53 29 c28 17 93 52 142 79 89 50
90 50 98 96 4 26 6 100 5 164 l-3 117 -147 -80z"/>
<path d="M2033 1642 l-142 -77 -1 -163 0 -163 73 41 c39 22 107 59 149 83 l78
42 0 158 c0 86 -3 157 -7 157 -5 -1 -72 -36 -150 -78z"/>
<path d="M2038 1258 l-148 -81 0 -159 c0 -87 3 -158 6 -158 7 0 276 149 287
159 4 4 6 78 5 164 l-3 156 -147 -81z"/>
<path d="M698 1254 l-138 -76 0 -160 c0 -91 4 -158 9 -156 5 2 70 37 145 78
l136 75 0 158 c0 86 -3 157 -7 157 -5 -1 -70 -35 -145 -76z"/>
<path d="M703 872 l-142 -77 -1 -163 c0 -159 0 -162 20 -150 17 11 20 26 22
143 l3 130 110 62 c61 34 116 66 123 70 8 5 12 20 10 35 l-3 27 -142 -77z"/>
<path d="M2041 875 c-74 -41 -138 -75 -143 -75 -4 0 -8 -72 -8 -161 0 -124 3
-160 13 -157 6 2 74 37 149 78 l138 75 0 158 c0 86 -3 157 -7 157 -5 -1 -68
-34 -142 -75z"/>
<path d="M1815 733 c-22 -13 -88 -49 -147 -81 l-108 -57 0 -162 0 -162 143 79
142 79 8 46 c4 25 6 99 5 163 l-3 118 -40 -23z"/>
<path d="M1035 670 l-140 -78 -3 -156 c-2 -124 0 -156 11 -156 31 0 37 24 37
151 l0 127 125 68 c115 62 125 69 125 95 0 16 -3 29 -7 28 -5 0 -71 -36 -148
-79z"/>
<path d="M1378 476 l-147 -81 -1 -157 c0 -87 3 -158 6 -158 3 0 68 34 144 76
l139 75 3 165 c2 90 3 164 3 163 0 -1 -66 -38 -147 -83z"/>
</g>
</svg>
